<svg xmlns:svg="http://www.w3.org/2000/svg" xmlns="http://www.w3.org/2000/svg" width="71" height="35" version="1.1">
    <g transform="matrix(0.09783502,0,0,0.09783502,-2.5989345,-0.67262131)">
        <path d="m107.04 18.25c0 0-59.31 258.77-59.31 258.77 0.02 0 0.02 0 0.05 0 0 0 274.38 0 274.38 0 0 0 142.71 0 142.71 0-17-1.48-30.42-7.45-38.42-18.33-1.48-2.01-2.71-4.18-3.78-6.45-0.68-1.67-1.32-3.36-1.97-5.06-1.71-5.42-2.39-11.44-2.08-17.85 0.85-17.87 9.24-39.13 23.77-61.39 15.43-23.66 37.8-48.45 65.49-71.46 6.21-5.15 12.63-10.24 19.34-15.19 8.3-6.11 16.67-11.74 25.05-17 30.85-19.42 61.62-33.01 88.88-39.91-26.06 8.5-55.33 22.93-84.25 42.58-1.04 0.7-2.07 1.42-3.09 2.13-16.05 11.12-30.58 22.93-43.27 34.85-40.82 38.38-62.4 78.16-52.6 101.46 0.7 1.6 1.53 3.13 2.5 4.58 10.54 15.5 36.66 18.18 69.75 9.86 2.25-0.56 4.5-1.2 6.82-1.87 10.57-3.05 21.8-7.17 33.36-12.26 2.78-1.23 5.59-2.49 8.42-3.84 0.29-0.14 0.56-0.27 0.85-0.43 36.49-18.13 64.54-38.99 70.61-51.53 1.33-2.73 1.65-5.05 0.75-6.87-4.33-8.78-34.64-2.85-71.35 13.06-2.95 1.28-5.93 2.59-8.95 4 2.46-2.28 5.01-4.57 7.62-6.82 4.16-3.58 8.47-7.09 13.06-10.55 7.18-5.44 14.44-10.35 21.58-14.71 33.46-25.24 50.37-49.12 46.84-57.98-0.67-1.67-2.08-2.82-4.26-3.52-6.97-2.22-19.7 0.43-35.17 6.77-12.76 5.23-27.41 12.99-42.26 22.65 0 0-2.02 1.33-2.02 1.33 0 0-0.37 0.21-0.37 0.21 0 0-7.14 4.74-7.14 4.74 0 0 4.1-7.51 4.1-7.51 6.09-11.14 16-22.77 28.35-33.57 9.05-7.9 19.4-15.34 30.53-21.85 4.21-2.47 8.42-4.76 12.63-6.82 4.31-2.11 8.63-3.98 12.84-5.65 12.24-4.84 23.92-7.78 34.1-8.58-0.93 0-28.62 0-28.62 0 0 0-96.45 0-96.45 0 0 0-425.29 0-425.29 0 0 0-33.73 0-33.73 0zm305.98 0.37c-1.67 25.5 3.27 62.86 14.49 104.34 2 7.38 4.17 14.89 6.55 22.49 1.48 4.69 3.01 9.31 4.58 13.85-0.92 1.35-1.85 2.7-2.72 4.05-14 21.46-22.18 41.73-24.25 59.36-5.92-19.81-10.37-41.52-12.9-64.53-0.72-6.59-1.28-13.11-1.65-19.56-2.76-46.8 3.35-89.22 15.88-120zm-279.39 33.2c0.32-0.01 0.63 0 0.96 0 0 0 63.04 0 63.04 0 5.39 0 9.56 1.01 12.52 3.04 2.95 2.04 4.06 4.68 3.36 7.89 0 0-7.51 33.94-7.51 33.94 0 0-22.22 0-22.22 0 0 0 7.3-33.04 7.3-33.04 0 0-55.63 0-55.63 0 0 0-20.09 90.8-20.09 90.8 0 0-7.25 32.88-7.25 32.88 0 0 55.58 0 55.58 0 0 0 0.05-0.21 0.05-0.21 0 0 11.14-50.3 11.14-50.3 0 0-26.11 0-26.11 0 0 0 2.5-11.35 2.5-11.35 0 0 48.33 0 48.33 0 0 0-13.85 62.77-13.85 62.77-0.19 0.89-0.52 1.7-0.96 2.5-1.14 2.08-3.14 3.86-5.91 5.33-3.85 2.03-8.47 3.04-13.85 3.04 0 0-62.99 0-62.99 0-5.39 0-9.56-1.01-12.52-3.04-2.95-2.03-4.07-4.62-3.36-7.83 0 0 27.76-125.49 27.76-125.49 0.72-3.21 2.95-5.85 6.82-7.89 0.14-0.07 0.29-0.09 0.43-0.16 3.53-1.77 7.68-2.76 12.47-2.88zm98.8 0c0 0 79.35 0 79.35 0 5.32 0 9.5 1.01 12.47 3.04 2.98 2.04 4.13 4.68 3.41 7.89 0 0-14.81 66.93-14.81 66.93-0.7 3.19-2.99 5.79-6.87 7.83-3.89 2.05-8.46 3.09-13.8 3.09 0 0-57.66 0-57.66 0 0 0-11.14 50.25-11.14 50.25 0 0-1.81 8.26-1.81 8.26 0 0-21.74 0-21.74 0 0 0 1.65-7.46 1.65-7.46 0 0 30.96-139.83 30.96-139.83zm109.61 0c0 0 21.74 0 21.74 0 0 0-24.62 111.21-24.62 111.21 0 0-5.38 24.3-5.38 24.3 0 0 52.01 0 52.01 0 0.55 3.99 1.18 7.91 1.87 11.78 0 0-78.23 0-78.23 0 0 0 6.18-27.92 6.18-27.92 0 0 26.43-119.37 26.43-119.37zM251.56 63.65c0 0-14.44 65.12-14.44 65.12 0 0 54.19 0 54.19 0 0 0 14.39-65.12 14.39-65.12 0 0-54.14 0-54.14 0zm-45.56 145.69c0.21-0.01 0.43 0 0.64 0 2.52 0 4.73 0.44 6.5 1.28 1.89 0.89 3.25 2.2 4 3.94 0.73 1.69 0.93 3.6 0.53 5.7 0 0-0.16 0.8-0.16 0.8 0 0-6.23 0-6.23 0 0 0 0.05-0.75 0.05-0.75 0.16-1.47-0.02-2.62-0.59-3.41-0.07-0.1-0.18-0.23-0.27-0.32-0.14-0.14-0.35-0.31-0.53-0.43-0.87-0.55-2.24-0.85-4-0.85-2.34 0-4.08 0.41-5.28 1.23-1.16 0.8-1.89 1.7-2.13 2.77-0.24 1.09 0.15 1.66 0.43 1.97 0.01 0.01 0.04 0.04 0.05 0.05 0.35 0.29 1.55 0.98 5.28 1.87 3.38 0.82 5.61 1.55 6.87 2.18 1.91 0.97 3.24 2.23 3.94 3.78 0.7 1.53 0.85 3.33 0.43 5.28-0.43 1.89-1.39 3.64-2.82 5.28-1.42 1.64-3.22 2.93-5.38 3.84-2.15 0.89-4.51 1.39-6.93 1.39-3.07 0-5.53-0.46-7.46-1.39-2.01-0.95-3.46-2.46-4.32-4.42-0.82-1.91-0.99-4.08-0.53-6.45 0 0 0.16-0.75 0.16-0.75 0 0 6.13 0 6.13 0 0 0-0.05 0.75-0.05 0.75-0.15 1.42 0 2.56 0.37 3.41 0.36 0.82 1.04 1.5 2.13 2.02 1.16 0.56 2.61 0.85 4.26 0.85 1.48 0 2.84-0.25 4.05-0.69 1.19-0.43 2.14-0.99 2.82-1.71 0.67-0.72 1.06-1.47 1.23-2.29 0.17-0.73 0.13-1.35-0.16-1.87-0.32-0.55-0.97-1.03-1.97-1.44 0 0-5.22-1.55-5.22-1.55-2.92-0.73-4.88-1.43-6.02-2.13-1.55-0.92-2.67-2.1-3.25-3.52-0.58-1.4-0.64-2.95-0.27-4.64 0.39-1.81 1.26-3.53 2.61-5.06 1.36-1.55 3.12-2.77 5.22-3.57 1.85-0.7 3.81-1.1 5.86-1.17zm55.95 0.11c0.34-0.03 0.65 0 1.01 0 0 0 3.84 0.43 3.84 0.43 0 0 1.28 0.11 1.28 0.11 0 0-1.87 4.74-1.87 4.74 0 0-0.37 0.75-0.37 0.75 0 0-2.93-0.27-2.93-0.27-0.87 0-1.5 0.13-1.92 0.43-0.03 0.02-0.08 0.08-0.11 0.11-0.06 0.05-0.15 0.13-0.21 0.21-0.26 0.34-0.57 0.94-0.8 2.02 0 0-0.11 0.46-0.21 0.85 1.35 0 4.58 0 4.58 0 0 0-1.17 5.28-1.17 5.28 0 0-3.35 0-4.48 0-0.34 1.53-4.53 20.3-4.53 20.3 0 0-6.18 0-6.18 0 0 0 4.02-18.03 4.53-20.3-1.04 0-3.57 0-3.57 0 0 0 1.17-5.28 1.17-5.28 0 0 2.55 0 3.52 0 0.17-0.73 0.43-1.65 0.43-1.65 0.38-1.71 0.77-2.93 1.28-3.78 0.7-1.18 1.69-2.16 2.93-2.88 1.03-0.6 2.32-0.95 3.78-1.07zm14.76 0.27c0 0-1.62 7.27-2.02 9.11 1.19 0 4 0 4 0 0 0-1.17 5.28-1.17 5.28 0 0-2.94 0-4 0-0.32 1.47-2.88 12.84-2.88 12.84 0 0-0.21 1.37-0.21 1.76 0 0.01 0 0.04 0 0.05 0 0 0 0.05 0 0.05 0 0 0.05 0 0.05 0 0 0 0.64 0.05 0.64 0.05 0 0 2.93-0.21 2.93-0.21 0 0-0.32 4.74-0.32 4.74 0 0 0.05 0.85 0.05 0.85 0 0-4.21 0.48-4.21 0.48-1.67 0-2.9-0.27-3.78-0.85-0.94-0.61-1.48-1.43-1.71-2.45-0.03-0.19-0.11-0.46-0.11-0.85 0-0.77 0.14-2.07 0.64-4.32 0 0 2.24-10.04 2.72-12.15-0.8 0-2.93 0-2.93 0 0 0 1.17-5.28 1.17-5.28 0 0 2.08 0 2.93 0 0.27-1.23 1.23-5.44 1.23-5.44 0 0 4.96-2.61 4.96-2.61 0 0 2.02-1.07 2.02-1.07zm-196.37 0.21c0 0 23.98 0 23.98 0 0 0-1.33 5.97-1.33 5.97 0 0-16 0-17.53 0-0.27 1.21-1.37 6.11-1.76 7.89 2.22 0 15.19 0 15.19 0 0 0-1.33 5.97-1.33 5.97 0 0-13.65 0-15.19 0-0.32 1.48-3.25 14.65-3.25 14.65 0 0-6.45 0-6.45 0 0 0 7.67-34.48 7.67-34.48zm32.13 8.42c0.24-0.03 0.5 0 0.75 0 1.53 0 2.95 0.47 4.32 1.44 0 0 0.85 0.59 0.85 0.59 0 0-3.3 5.44-3.3 5.44 0 0-0.91-0.64-0.91-0.64-0.67-0.43-1.38-0.64-2.13-0.64-0.65 0-1.25 0.23-1.87 0.64-0.65 0.43-1.19 0.99-1.6 1.76-0.72 1.31-1.24 2.78-1.6 4.37 0 0-2.88 13.11-2.88 13.11 0 0-6.18 0-6.18 0 0 0 5.7-25.58 5.7-25.58 0 0 5.76 0 5.76 0 0 0-0.2 0.78-0.27 1.07 0.27-0.2 0.56-0.49 0.8-0.64 0.83-0.49 1.7-0.8 2.56-0.91zm18.33 0c0.37-0.03 0.74 0 1.12 0 3.48 0 6.11 1.22 7.83 3.62 1.07 1.55 1.65 3.47 1.65 5.76 0 1.26-0.16 2.62-0.48 4.1 0 0-0.48 1.87-0.48 1.87 0 0-15.63 0-17.37 0-0.03 0.36-0.05 0.74-0.05 1.07 0 1.33 0.27 2.38 0.85 3.14 0.28 0.38 0.59 0.71 0.96 0.96 0.69 0.45 1.57 0.69 2.61 0.69 1.26 0 2.37-0.35 3.41-1.01 0.99-0.63 1.94-1.64 2.77-3.04 0 0 6.61 0 6.61 0 0 0-0.59 1.28-0.59 1.28-1.26 2.56-3.02 4.55-5.22 5.97-2.2 1.42-4.83 2.18-7.73 2.18-3.77 0-6.57-1.22-8.31-3.62-1.72-2.35-2.09-5.61-1.17-9.7 0.92-4.16 2.76-7.49 5.44-9.81 2.4-2.08 5.12-3.23 8.15-3.46zm27.76 0c0.37-0.03 0.74 0 1.12 0 3.48 0 6.11 1.22 7.83 3.62 1.07 1.55 1.65 3.47 1.65 5.76 0 1.24-0.16 2.58-0.48 4.05 0 0-0.48 1.92-0.48 1.92 0 0-15.63 0-17.37 0-0.02 0.24-0.04 0.45-0.05 0.69-0.01 0.09 0.01 0.23 0 0.32 0 0.02 0 0.04 0 0.05 0 0.26 0.04 0.51 0.05 0.75 0.09 0.97 0.34 1.78 0.8 2.4 0.09 0.12 0.17 0.27 0.27 0.37 0.78 0.84 1.89 1.28 3.3 1.28 1.26 0 2.39-0.35 3.41-1.01 0.99-0.63 1.94-1.64 2.77-3.04 0 0 6.66 0 6.66 0 0 0-0.64 1.28-0.64 1.28-1.26 2.56-3.02 4.55-5.22 5.97-2.2 1.42-4.83 2.18-7.73 2.18-3.77 0-6.57-1.22-8.31-3.62-1.13-1.53-1.65-3.49-1.65-5.81 0-0.36 0.02-0.74 0.05-1.12 0.07-0.89 0.2-1.78 0.43-2.77 0.92-4.14 2.7-7.49 5.38-9.81 2.4-2.08 5.18-3.23 8.21-3.46zm75.62 0c0.38-0.03 0.73 0 1.12 0 3.55 0 6.27 1.2 8.05 3.57 1.76 2.37 2.18 5.57 1.28 9.59-0.7 3.14-1.71 5.67-3.09 7.51-1.38 1.84-3.14 3.35-5.22 4.37-2.06 1.02-4.25 1.55-6.45 1.55-3.62 0-6.31-1.24-8.05-3.62-1.13-1.52-1.71-3.47-1.71-5.81 0-1.26 0.14-2.6 0.48-4.1 1.02-4.57 3.11-8.05 6.18-10.28 2.25-1.63 4.74-2.57 7.41-2.77zm93.63 0c0.45-0.03 0.87 0 1.33 0 2.15 0 3.84 0.22 5.12 0.75 1.36 0.55 2.33 1.32 2.88 2.24 0.53 0.87 0.8 1.94 0.8 3.25 0 0-0.64 3.89-0.64 3.89 0 0-1.17 5.28-1.17 5.28-1.01 4.5-1.23 6.19-1.28 6.82-0.05 0.85 0.03 1.68 0.27 2.45 0 0 0.43 1.39 0.43 1.39 0 0-6.29 0-6.29 0 0 0-0.27-0.8-0.27-0.8-0.1-0.38-0.07-0.85-0.11-1.28-1.19 0.73-2.39 1.38-3.46 1.76-1.59 0.55-3.23 0.85-4.9 0.85-2.9 0-5.05-0.75-6.34-2.24-0.99-1.09-1.44-2.43-1.44-3.94 0-0.58 0.08-1.18 0.21-1.81 0.29-1.3 0.82-2.5 1.65-3.57 0.82-1.06 1.79-1.93 2.88-2.56 1.06-0.63 2.24-1.08 3.46-1.39 0 0 3.78-0.64 3.78-0.64 2.92-0.34 5.09-0.77 6.66-1.23 0.03-0.17 0.11-0.37 0.11-0.37 0.25-1.1 0.22-1.92-0.05-2.34-0.02-0.03-0.08-0.08-0.11-0.11-0.06-0.06-0.15-0.16-0.21-0.21-0.64-0.51-1.74-0.75-3.2-0.75-1.65 0-2.88 0.27-3.73 0.8-0.84 0.53-1.61 1.5-2.29 2.88 0 0-6.45 0-6.45 0 0 0 0.59-1.28 0.59-1.28 0.77-1.77 1.68-3.24 2.82-4.37 1.14-1.13 2.69-2 4.48-2.61 1.37-0.45 2.87-0.75 4.48-0.85zm27.02 0c0.24-0.03 0.5 0 0.75 0 1.55 0 3.01 0.47 4.37 1.44 0 0 0.8 0.59 0.8 0.59 0 0-3.3 5.44-3.3 5.44 0 0-0.91-0.64-0.91-0.64-0.67-0.43-1.35-0.64-2.08-0.64-0.65 0-1.29 0.23-1.92 0.64-0.65 0.43-1.12 0.99-1.55 1.76-0.7 1.31-1.24 2.78-1.6 4.37 0 0-2.93 13.11-2.93 13.11 0 0-6.18 0-6.18 0 0 0 5.7-25.58 5.7-25.58 0 0 5.76 0 5.76 0 0 0-0.14 0.78-0.21 1.07 0.27-0.2 0.54-0.49 0.8-0.64 0.81-0.49 1.65-0.8 2.5-0.91zm18.28 0c0.37-0.03 0.74 0 1.12 0 3.48 0 6.13 1.22 7.83 3.62 1.09 1.55 1.65 3.47 1.65 5.76 0 1.26-0.21 2.62-0.53 4.1 0 0-0.43 1.87-0.43 1.87 0 0-15.65 0-17.37 0-0.03 0.36-0.11 0.74-0.11 1.07 0 1.33 0.29 2.38 0.85 3.14 0.09 0.12 0.22 0.27 0.32 0.37 0.06 0.06 0.15 0.16 0.21 0.21 0.76 0.69 1.8 1.07 3.09 1.07 1.26 0 2.37-0.35 3.41-1.01 0.99-0.63 1.92-1.64 2.77-3.04 0 0 6.66 0 6.66 0 0 0-0.64 1.28-0.64 1.28-1.26 2.56-3.04 4.55-5.22 5.97-2.22 1.42-4.81 2.18-7.73 2.18-3.77 0-6.52-1.22-8.26-3.62-1.72-2.35-2.13-5.61-1.23-9.7 0.92-4.16 2.7-7.49 5.38-9.81 2.41-2.08 5.18-3.23 8.21-3.46zm-93.31 0.48c0 0 6.34 0 6.34 0 0 0 0.78 15.18 0.8 15.4 0.26-0.54 0.45-1 0.48-1.07 0 0 6.98-14.33 6.98-14.33 0 0 5.81 0 5.81 0 0 0 0.53 15 0.53 15.08 0.17-0.31 7.94-15.08 7.94-15.08 0 0 6.29 0 6.29 0 0 0-13.85 25.58-13.85 25.58 0 0-5.7 0-5.7 0 0 0-0.55-13.87-0.59-14.65-2.35 4.83-7.14 14.65-7.14 14.65 0 0-5.86 0-5.86 0 0 0-2.02-25.58-2.02-25.58zm-148.89 4.85c-1.47 0.06-2.8 0.59-4.05 1.6-0.99 0.78-1.66 1.86-2.18 3.04 0 0 10.5 0 10.5 0 0.02-0.19 0.05-0.42 0.05-0.59 0-0.97-0.17-1.73-0.48-2.24-0.75-1.23-1.86-1.81-3.52-1.81-0.1 0-0.22 0-0.32 0zm27.76 0c-1.47 0.06-2.8 0.59-4.05 1.6-0.99 0.78-1.64 1.86-2.18 3.04 0 0 10.5 0 10.5 0 0.02-0.19 0.05-0.42 0.05-0.59 0-0.97-0.16-1.73-0.48-2.24-0.15-0.25-0.35-0.5-0.53-0.69-0.71-0.74-1.69-1.12-2.98-1.12-0.1 0-0.22 0-0.32 0zm214.75 0c-1.51 0.05-2.92 0.56-4.21 1.6-0.97 0.78-1.64 1.86-2.18 3.04 0 0 10.44 0 10.44 0 0.02-0.19 0.05-0.42 0.05-0.59 0-0.97-0.16-1.73-0.48-2.24-0.73-1.21-1.86-1.79-3.52-1.81-0.05 0-0.06 0-0.11 0zm-139.62 0.11c-1.41 0.17-2.72 0.81-3.94 1.92-1.47 1.33-2.53 3.42-3.14 6.18-0.26 1.16-0.37 2.15-0.37 3.04 0 1.21 0.23 2.16 0.69 2.88 0.12 0.18 0.29 0.38 0.43 0.53 0.76 0.8 1.82 1.23 3.14 1.23 1.72 0 3.24-0.64 4.69-1.97 1.47-1.35 2.51-3.46 3.14-6.29 0.58-2.59 0.5-4.53-0.32-5.76-0.78-1.19-1.93-1.76-3.52-1.76-0.27 0-0.54-0.03-0.8 0zm96.29 9.33c-1.45 0.39-3.07 0.72-5.22 1.01-1.6 0.24-2.75 0.49-3.41 0.75-0.58 0.24-1.05 0.57-1.44 1.01-0.38 0.43-0.63 0.87-0.75 1.39-0.03 0.2-0.05 0.42-0.05 0.59 0 0.01 0 0.04 0 0.05 0 0.04 0 0.12 0 0.16 0.01 0.08 0.03 0.19 0.05 0.27 0.01 0.02 0.04 0.08 0.05 0.11 0.02 0.05 0.03 0.12 0.05 0.16 0.02 0.04 0.08 0.12 0.11 0.16 0.04 0.06 0.11 0.16 0.16 0.21 0.43 0.48 1.28 0.69 2.5 0.69 1.35 0 2.64-0.26 3.84-0.85 1.18-0.58 2.13-1.45 2.82-2.45 0.51-0.72 0.92-1.82 1.28-3.25z" fill="#bd0000"/>
        <path d="m417.08 250.21c0.69 1.78 1.38 3.56 2.11 5.29 1.11 2.36 2.39 4.62 3.94 6.73 8.34 11.33 22.3 17.53 40.02 19.08 0 0 19.07 0 19.07 0 6.03-0.47 12.34-1.35 18.89-2.63 11.29-2.21 23.26-5.6 35.69-10.13 9.42-3.43 19.09-7.5 28.91-12.22 21.39-10.25 43.48-23.48 65.16-39.43 7.14-5.25 13.99-10.64 20.56-16.12 6.03-5.02 11.81-10.11 17.33-15.26 15.42-14.86 27.05-29.95 33.65-43.19 6.86-13.8 8.23-25.59 2.61-33.02-3.45-4.56-9.22-7.01-16.64-7.58 33.46-25.1 52.96-55.56 45.96-74.76-2.22-6.13-7.11-10.7-14.12-13.23-3.11-1.12-6.62-1.83-10.44-2.15 0 0-10.3 0-10.3 0-14.38 1.04-35.29 6.19-53.02 14.88" style="fill:none;stroke-miterlimit:4;stroke-width:8.53;stroke:#bd0000"/>
        <g transform="scale(1.705222,1.705222)" fill="#bd0000">
            <path transform="translate(15.5783,177.825)" d="m0 36c0 0 7.46 0 7.46 0 0 0 3.35-14 3.35-14 0 0 12.12 0 12.12 0 0 0 1.56-6 1.56-6 0 0-12.17 0-12.17 0 0 0 2.02-9 2.02-9 0 0 12.95 0 12.95 0 0 0 1.56-7 1.56-7C28.85 0 8.4 0 8.4 0 8.4 0 0 36 0 36ZM7.51 26 7.51 26"/>
            <path transform="translate(41.5283,187.825)" d="m7.51 26c0 0 2.24-9.4 2.24-9.4 1.18-5.09 3.67-9.6 8.38-9.6 0.42 0 0.83 0.21 1.14 0.26 0 0 1.82-7.21 1.82-7.21-0.42 0-0.88-0.05-1.4-0.05-3.47 0-6.38 2.44-8.32 5.94 0 0-0.2 0-0.2 0C11.46 4.23 11.71 2.61 11.9 1 11.9 1 5.47 1 5.47 1 5.1 3.08 4.53 7.15 3.66 10.82 3.66 10.82 0 26 0 26c0 0 7.51 0 7.51 0z"/>
            <path transform="translate(62.1583,187.825)" d="M20.06 19.25C17.99 20.26 15.63 20 12.88 20 10.71 20 9.03 19.62 8.11 18.88 7.63 18.07 7.43 16.81 7.47 16 17.6 16.27 23.99 13.93 24.31 7.53 24.55 2.7 21.02 0 15.89 0 6.73 0 0.73 8.08 0.34 15.86 0 22.65 3.52 26 10.78 26c2.79 0 6.49-0.32 9.52-1.23 0 0-0.24-5.52-0.24-5.52zM17.32 7.53C17.2 9.91 14.26 10.05 8.47 10 9.1 7.91 11.22 6 14.69 6c1.71 0 2.69 0.65 2.63 1.53z"/>
            <path transform="translate(88.6783,187.825)" d="M20.05 19.25C17.98 20.26 15.62 20 12.88 20 10.7 20 9.03 19.62 8.11 18.88 7.63 18.07 7.42 16.81 7.46 16 17.6 16.27 23.98 13.93 24.31 7.53 24.55 2.7 21.02 0 15.89 0 6.72 0 0.72 8.08 0.33 15.86 0 22.65 3.52 26 10.77 26c2.8 0 6.5-0.32 9.53-1.23 0 0-0.25-5.52-0.25-5.52zM17.32 7.53C17.2 9.91 14.26 10.05 8.46 10 9.1 7.91 11.21 6 14.68 6c1.71 0 2.7 0.65 2.64 1.53z"/>
            <path transform="translate(124.5883,187.825)" d="M22.74 26C22.8 22.83 23.56 17.85 24.35 14.58 24.35 14.58 27.56 1 27.56 1 25.52 0.31 22.34 0 19.28 0 6.86 0 0.7 9.2 0.27 17.82 0 23.23 2.93 26 7.49 26c2.95 0 6.28-1.43 8.87-5.73 0 0 0.11 0 0.11 0-0.2 2.07-0.44 4.08-0.57 5.73 0 0 6.84 0 6.84 0zM17.61 11.72C16.15 18.08 13.17 20 10.95 20 8.88 20 7.98 18.53 8.1 16.39 8.34 11.56 12.16 6 16.98 6c0.78 0 1.39-0.14 1.96-0.28 0 0-1.33 6-1.33 6z"/>
            <path transform="translate(152.2183,187.825)" d="m0 24.82c1.44 1.12 4.46 1.13 7.61 1.18 6.73 0.05 11.81-2.89 12.11-8.29 0.17-3.6-2.62-5.73-5.35-7.16C12.4 9.6 11.41 8.69 11.46 7.63 11.53 6.2 12.87 6 14.84 6c2.22 0 4 0.27 5.02 0.47 0 0 2.02-5.42 2.02-5.42C20.73 0.36 18.43 0 15.48 0 8.95 0 4.17 3.45 3.9 8.69c-0.16 3.24 2.17 5.42 4.99 6.9 2.28 1.17 3.06 2.07 3 3.34C11.82 20.21 10.68 20 8.61 20 6.18 20 3.49 19.68 2.07 19.46 2.07 19.46 0 24.82 0 24.82Z"/>
            <path transform="translate(184.6683,176.825)" d="m7.45 37c0 0 6.05-25 6.05-25 0 0-7.41 0-7.41 0 0 0-6.09 25-6.09 25 0 0 7.45 0 7.45 0zM10.92 9C13.46 9 15.72 6.9 15.86 3.3 15.98 0.86 14.4 0 12.07 0 9.64 0 7.42 1.58 7.29 3.94 7.17 6.32 8.75 9 10.92 9Z"/>
            <path transform="translate(198.9583,188.515)" d="m7.46 25.31c0 0 2.64-11.26 2.64-11.26 1.37-5.73 4.32-7.74 6.75-7.74 1.92 0 2.48 0.82 2.39 2.01-0.05 0.96-0.2 1.97-0.4 2.87 0 0-3.36 14.12-3.36 14.12 0 0 7.46 0 7.46 0 0 0 3.54-14.81 3.54-14.81C26.75 9.22 27.05 7.31 27.11 6.15 27.33 1.64 25.08 0 20.94 0c-3.32 0-6.55 1.54-9.1 4.88 0 0-0.1 0-0.1 0 0 0 0.68-4.57 0.68-4.57 0 0-6.58 0-6.58 0C5.41 2.45 4.86 5.04 4.08 8.06 4.08 8.06 0 25.31 0 25.31c0 0 7.46 0 7.46 0z"/>
            <path transform="translate(238.5183,177.825)" d="m0 36c0 0 7.46 0 7.46 0 0 0 3.36-14 3.36-14 0 0 12.11 0 12.11 0 0 0 1.56-6 1.56-6 0 0-12.17 0-12.17 0 0 0 2.02-9 2.02-9 0 0 12.95 0 12.95 0 0 0 1.56-7 1.56-7C28.85 0 8.4 0 8.4 0 8.4 0 0 36 0 36Z"/>
            <path transform="translate(264.4683,187.825)" d="m7.51 26c0 0 2.24-9.4 2.24-9.4 1.18-5.09 3.67-9.6 8.38-9.6 0.42 0 0.83 0.21 1.14 0.26 0 0 1.82-7.21 1.82-7.21-0.42 0-0.88-0.05-1.4-0.05-3.47 0-6.38 2.44-8.32 5.94 0 0-0.2 0-0.2 0C11.46 4.23 11.71 2.61 11.9 1 11.9 1 5.47 1 5.47 1 5.11 3.08 4.53 7.15 3.66 10.82 3.66 10.82 0 26 0 26c0 0 7.51 0 7.51 0z"/>
            <path transform="translate(285.0983,187.825)" d="M20.06 19.25C17.99 20.26 15.63 20 12.88 20 10.71 20 9.03 19.62 8.11 18.88 7.63 18.07 7.43 16.81 7.47 16 17.6 16.27 23.99 13.93 24.31 7.53 24.55 2.7 21.02 0 15.89 0 6.73 0 0.73 8.08 0.34 15.86 0 22.65 3.53 26 10.78 26c2.79 0 6.5-0.32 9.52-1.23 0 0-0.24-5.52-0.24-5.52zM17.32 7.53C17.2 9.91 14.26 10.05 8.47 10 9.1 7.91 11.22 6 14.69 6c1.71 0 2.69 0.65 2.63 1.53z"/>
            <path transform="translate(311.6183,187.825)" d="M20.05 19.25C17.98 20.26 15.62 20 12.88 20 10.7 20 9.03 19.62 8.11 18.88 7.63 18.07 7.42 16.81 7.46 16 17.6 16.27 23.98 13.93 24.31 7.53 24.55 2.7 21.02 0 15.89 0 6.72 0 0.72 8.08 0.33 15.86 0 22.65 3.52 26 10.77 26c2.8 0 6.5-0.32 9.53-1.23 0 0-0.25-5.52-0.25-5.52zM17.32 7.53C17.2 9.91 14.26 10.05 8.46 10 9.1 7.91 11.21 6 14.68 6c1.71 0 2.7 0.65 2.64 1.53z"/>
            <path transform="translate(337.9983,176.825)" d="M23.31 0C23.31 0 20.5 11.36 20.5 11.36 19.48 10.94 18.15 11 17.11 11 7.53 11 0.75 19.2 0.3 28.08 0 34.34 3.34 37 7.64 37c3.01 0 6.18-1.33 8.58-4.77 0 0 0.1 0 0.1 0 0 0-0.57 4.77-0.57 4.77 0 0 6.78 0 6.78 0 0.31-3 0.96-6.57 1.69-9.83 0 0 6.49-27.17 6.49-27.17 0 0-7.4 0-7.4 0zM17.47 24.42C16.3 29.35 13.54 31 11.36 31 9.19 31 7.98 29.49 8.13 26.8 8.38 21.82 11.8 17 16.25 17c1.25 0 2.32 0.19 2.91 0.47 0 0-1.69 6.95-1.69 6.95z"/>
            <path transform="translate(367.7083,187.825)" d="M10.61 26C19.31 26 26.02 19.41 26.49 10.44 26.78 4.5 23.08 0 16.25 0 7.23 0 0.76 7.3 0.31 16.12 0 22.54 4.14 26 10.61 26Zm1.17-6C9.24 20 7.84 18.38 7.99 15.96 8.19 11.93 10.68 6 14.97 6c2.96 0 3.87 2.27 3.75 4.5-0.22 4.4-2.9 9.5-6.94 9.5z"/>
            <path transform="translate(396.2683,187.825)" d="M7.2 26C7.2 26 9.9 14.58 9.9 14.58 11.03 9.49 13.85 6 16.38 6c1.82 0 2.32 1.33 2.23 3.07-0.05 0.9-0.25 1.91-0.46 2.91 0 0-3.34 14.02-3.34 14.02 0 0 7.2 0 7.2 0 0 0 2.7-11.47 2.7-11.47C25.95 9.28 28.61 6 31.09 6c1.71 0 2.42 1.22 2.34 2.96-0.05 1.01-0.26 2.12-0.52 3.13 0 0-3.24 13.91-3.24 13.91 0 0 7.25 0 7.25 0 0 0 3.49-14.81 3.49-14.81 0.27-1.33 0.58-3.4 0.63-4.46C41.26 2.33 39.11 0 35.23 0 31.91 0 28.68 1.5 26.23 4.66 26.14 2.38 24.51 0 20.47 0 17.2 0 14.08 1.48 11.58 4.83c0 0-0.1 0-0.1 0 0 0 0.67-3.83 0.67-3.83 0 0-6.42 0-6.42 0C5.31 3.14 4.8 5.73 4.02 8.75 4.02 8.75 0 26 0 26c0 0 7.2 0 7.2 0z"/>
        </g>
    </g>
</svg>
