<svg xmlns:svg="http://www.w3.org/2000/svg" xmlns="http://www.w3.org/2000/svg" width="191" height="35" viewBox="-172.6 -31.6 716.3 131.3" version="1.1">
    <polygon points="468.2 15.1 503.6 15.1 503.6 -25.7 388.1 -25.7 388.1 15.1 423.5 15.1 423.5 112.5 468.2 112.5 " transform="matrix(0.87502296,0,0,0.87502296,-21.573535,-3.953967)" fill="#000"/>
    <polygon points="-172.6 -25.7 -172.6 112.5 -92.5 112.5 -92.5 71.7 -127.9 71.7 -127.9 -25.7 " transform="matrix(0.87502296,0,0,0.87502296,-21.573535,-3.953967)" fill="#000"/>
    <path d="m-66.2 34.9c0-0.3 0-0.6 0-0.9 0-0.3 0-0.6 0-0.9l0 1.8zm57.1-64.7c-39.4 0-56.8 23.2-57 63.8 0.3 40.6 17.7 63.8 57 63.8 39.4 0 56.8-23.2 57-63.8C47.6-6.6 30.2-29.7-9.1-29.7Zm0 93.6c-13.9 0-18.3-10-18.3-29.9 0-19.8 4.5-29.9 18.3-29.9 13.9 0 18.3 10 18.3 29.9 0 19.8-4.5 29.9-18.3 29.9zM47.9 34c0 0.3 0 0.6 0 0.9l0-1.8c0 0.3 0 0.6 0 0.9z" fill="#000"/>
    <polygon points="155.1 -25.7 111.4 -25.7 174.4 118.4 237.3 -25.7 193.7 -25.7 174.4 18.6 " transform="matrix(0.87502296,0,0,0.87502296,-21.573535,-3.953967)" fill="#000"/>
    <polygon points="318.7 94.7 326.5 112.5 370.1 112.5 307.2 -31.6 285.3 18.4 300.7 53.6 269.9 53.6 252 94.7 " transform="matrix(0.87502296,0,0,0.87502296,-21.573535,-3.953967)" fill="#000"/>
    <polygon points="595 94.7 602.7 112.5 646.4 112.5 583.4 -31.6 561.6 18.4 577 53.6 546.2 53.6 528.2 94.7 " transform="matrix(0.87502296,0,0,0.87502296,-21.573535,-3.953967)" fill="#000"/>
    <path d="m536.1-11.4-2.1-4.2-1.5 0 0 4.2-2 0 0-10.6 4.1 0c2.1 0 3.4 1.5 3.4 3.2 0 1.5-0.9 2.4-1.9 2.8l2.4 4.6-2.4 0zm-1.6-8.7-1.9 0 0 2.8 2 0c0.9 0 1.5-0.6 1.5-1.4 0-0.8-0.6-1.4-1.5-1.4zM533.8-6.8c-5.4 0-9.9-4.4-9.9-9.9 0-5.4 4.4-9.9 9.9-9.9 5.4 0 9.9 4.4 9.9 9.9 0 5.4-4.4 9.9-9.9 9.9zm0-18.4c-4.7 0-8.6 3.8-8.6 8.6 0 4.7 3.8 8.6 8.6 8.6 4.7 0 8.6-3.8 8.6-8.6 0-4.7-3.8-8.6-8.6-8.6z" fill="#000"/>
</svg>
