<svg xmlns:svg="http://www.w3.org/2000/svg" xmlns="http://www.w3.org/2000/svg" version="1.1" x="0" y="0" viewBox="0 0 50 50" enable-background="new 0 0 98 97.3" xml:space="preserve">
    <path stroke-miterlimit="10" d="m11.35 34.36 0-22.09c0-1.19 0.98-2.17 2.17-2.17l25.96 0c1.19 0 2.17 0.98 2.17 2.17l0 34.52c0 1.19-0.98 2.17-2.17 2.17l-25.96 0c-1.19 0-2.17-0.98-2.17-2.17l0-4.13M32.35 11.92l-6.19 0-3.92 0-4.64 0-4.8 0-0.88 0M32.35 11.92l-6.19 0-3.92 0-4.64 0-4.8 0-0.88 0" style="fill:#c6ddf4;stroke-linecap:round;stroke-width:2.06;stroke:#c6ddf4"/>
    <path stroke-miterlimit="10" d="m32.35 11.92-6.19 0-3.92 0-4.64 0-4.8 0-0.88 0c-1.19 0-2.17 0.98-2.17 2.17l0 8.41c0 1.19 0.98 2.17 2.17 2.17l35.04 0c1.19 0 2.17-0.98 2.17-2.17l0-8.41c0-1.19-0.98-2.17-2.17-2.17l-9.44 0" style="fill:#c6ddf4;stroke-linecap:round;stroke-width:2.06;stroke:#c6ddf4"/>
    <path stroke-miterlimit="10" d="m8.67 31.99 0-28.79c0-1.19 0.98-2.17 2.17-2.17l25.96 0c1.19 0 2.17 0.98 2.17 2.17l0 41.23c0 1.19-0.98 2.17-2.17 2.17l-26.01 0c-1.19 0-2.17-0.98-2.17-2.17l0-4.13M29.88 9.34l-6.19 0-3.92 0-10.84 0-4.85 0-0.88 0M29.88 9.34l-6.19 0-3.92 0-10.84 0-4.85 0-0.88 0" style="fill:#fff;stroke-linecap:round;stroke-width:2.06;stroke:#3b3b3b"/>
    <path stroke-miterlimit="10" d="m29.88 9.34-6.19 0-3.92 0-10.84 0-4.85 0-0.88 0c-1.19 0-2.17 0.98-2.17 2.17l0 8.41c0 1.19 0.98 2.17 2.17 2.17l41.23 0c1.19 0 2.17-0.98 2.17-2.17l0-8.41c0-1.19-0.98-2.17-2.17-2.17l-9.39 0" style="fill:#fff;stroke-linecap:round;stroke-width:2.06;stroke:#3b3b3b"/>
    <line stroke-miterlimit="10" x1="8.67" y1="36.07" x2="8.67" y2="36.02" style="fill:#fff;stroke-linecap:round;stroke-width:2.06;stroke:#3b3b3b"/>
    <line stroke-miterlimit="10" x1="5.26" y1="15.79" x2="5.26" y2="20.95" style="fill:#fff;stroke-linecap:round;stroke-width:2.06;stroke:#3b3b3b"/>
    <line stroke-miterlimit="10" x1="10.42" y1="17.95" x2="10.42" y2="20.95" style="fill:#fff;stroke-linecap:round;stroke-width:2.06;stroke:#3b3b3b"/>
    <line stroke-miterlimit="10" x1="15.58" y1="15.79" x2="15.58" y2="20.95" style="fill:#fff;stroke-linecap:round;stroke-width:2.06;stroke:#3b3b3b"/>
    <line stroke-miterlimit="10" x1="20.74" y1="17.95" x2="20.74" y2="20.95" style="fill:#fff;stroke-linecap:round;stroke-width:2.06;stroke:#3b3b3b"/>
    <line stroke-miterlimit="10" x1="25.9" y1="15.79" x2="25.9" y2="20.95" style="fill:#fff;stroke-linecap:round;stroke-width:2.06;stroke:#3b3b3b"/>
    <line stroke-miterlimit="10" x1="31.06" y1="17.95" x2="31.06" y2="20.95" style="fill:#fff;stroke-linecap:round;stroke-width:2.06;stroke:#3b3b3b"/>
    <line stroke-miterlimit="10" x1="36.22" y1="15.79" x2="36.22" y2="20.95" style="fill:#fff;stroke-linecap:round;stroke-width:2.06;stroke:#3b3b3b"/>
    <line stroke-miterlimit="10" x1="15.69" y1="21.57" x2="20.85" y2="21.57" style="fill:#fff;stroke-linecap:round;stroke-width:2.06;stroke:#3b3b3b"/>
    <line stroke-miterlimit="10" x1="41.39" y1="17.95" x2="41.39" y2="20.95" style="fill:#fff;stroke-linecap:round;stroke-width:2.06;stroke:#3b3b3b"/>
    <g transform="matrix(0.51602386,0,0,0.51602386,-0.30961426,-0.10591805)">
        <path d="m69.5 9.5-46 0c-0.6 0-1 0.4-1 1l0 1c0 0.6 0.4 1 1 1l46 0c0.6 0 1-0.4 1-1l0-1c0-0.6-0.4-1-1-1zm0 41-46 0c-0.6 0-1 0.4-1 1l0 1c0 0.6 0.4 1 1 1l46 0c0.6 0 1-0.4 1-1l0-1c0-0.6-0.4-1-1-1zm0 8-46 0c-0.6 0-1 0.4-1 1l0 1c0 0.6 0.4 1 1 1l46 0c0.6 0 1-0.4 1-1l0-1c0-0.6-0.4-1-1-1zm0 8-46 0c-0.6 0-1 0.4-1 1l0 1c0 0.6 0.4 1 1 1l46 0c0.6 0 1-0.4 1-1l0-1c0-0.6-0.4-1-1-1zm-18 8-28 0c-0.6 0-1 0.4-1 1l0 1c0 0.6 0.4 1 1 1l28 0c0.6 0 1-0.4 1-1l0-1c0-0.6-0.4-1-1-1z" fill="#e8e8e8"/>
    </g>
</svg>
